<mxfile host="app.diagrams.net" modified="2023-02-07T05:33:27.196Z" agent="5.0 (Windows NT 10.0; Win64; x64) AppleWebKit/537.36 (KHTML, like Gecko) Chrome/109.0.0.0 Safari/537.36" etag="mzQ5nWvjvrYsVjvDBNVE" version="20.8.16" type="github">
  <diagram name="第 1 页" id="n82UVgEXxQEtexk1n8Ow">
    <mxGraphModel dx="702" dy="1574" grid="1" gridSize="10" guides="1" tooltips="1" connect="1" arrows="1" fold="1" page="1" pageScale="1" pageWidth="827" pageHeight="1169" math="0" shadow="0">
      <root>
        <mxCell id="0" />
        <mxCell id="1" parent="0" />
        <mxCell id="M7bjFKGv_57T8ZOS4i-B-9" style="edgeStyle=orthogonalEdgeStyle;rounded=0;orthogonalLoop=1;jettySize=auto;html=1;entryX=0;entryY=0.5;entryDx=0;entryDy=0;" edge="1" parent="1">
          <mxGeometry relative="1" as="geometry">
            <mxPoint x="203" y="105" as="sourcePoint" />
            <mxPoint x="253" y="105" as="targetPoint" />
          </mxGeometry>
        </mxCell>
        <mxCell id="M7bjFKGv_57T8ZOS4i-B-1" value="" style="shape=image;verticalLabelPosition=bottom;verticalAlign=top;imageAspect=0;aspect=fixed;image=data:image/png,iVBORw0KGgoAAAANSUhEUgAAAMgAAADICAYAAACtWK6eAAAAAXNSR0IArs4c6QAACHpJREFUeF7tnT1vHGUUhXecSKnyNza/KJOCgoaCgoKCggIJKCgoKCgoKGgoKIhAgECAQCBAIEBYIIzsnVl7bUGwAIEAYRlhZz1olY34UBI7857dfe95H7fxvbPnOfeRtbFlVwM+IACB2xKoYAMBCNyeAIJwHRC4AwEE4TwggCDcAAT6EeArSD9uTBVCAEEKKZqY/QggSD9uTBVCAEEKKZqY/QggSD9uTBVCAEEKKZqY/QggSD9uTBVCAEEKKZqY/QggSD9uTBVCAEEKKZqY/QggSD9uTBVCAEEKKZqY/QggSD9uTBVCAEEKKZqY/QggSD9uTBVCAEEKKZqY/QggSD9uTBVCAEEKKZqY/QggSD9uTBVCAEEKKZqY/QhUw+Gw6zfKFAT8CSCIf8ckTCCAIAnwGPUngCD+HZMwgQCCJMBj1J8Agvh3TMIEAgiSAI9RfwII4t8xCRMIIEgCPEb9CSCIf8ckTCCAIAnwGPUngCD+HZMwgQCCJMBj1J8Agvh3TMIEAgiSAI9RfwII4t8xCRMIIEgCPEb9CSCIf8ckTCCAIAnwGPUngCD+HZMwgQCCJMBj1J8Agvh3TMIEAgiSAI9RfwII4t8xCRMIIEgCPEb9CSCIf8ckTCCAIAnwGPUngCD+HZMwgQCCJMBj1J8Agvh3TMIEAgiSAI9RfwII4t8xCRMIRBfk6mAwuJyQn1EI3JFAWEGqqnqhaZp7hsPhi0jClS+KQFRBnm/b9t6bUJBkUefB3oiCPNe27X3/rw5JOOZFEAglSFVVzzZNc//tQCDJIk6k7J2RBHmmbdsHTqsLSU4jxL/fDYEQgnRd9/R4PH7wrMGQ5Kyk+LzTCEQQ5Km2bR86LQjvSe6WEJ9/FgJZC9J13ZPj8fjhswS51efwlaQvOeZuEshWkKqqnmia5pHUqpAklWDZ87kK8ljbto+rqkESFcny9uQqyKwJJCnvHrNLnLMgSJLduZT3gnIXBEnKu8msEkcQBEmyOpmyXkwUQZCkrLvMJm0kQZAkm7Mp54VEEwRJyrnNLJJGFARJsjidMl5EVEGQpIz7XHnKyIIgycrPx/8FRBcESfxvdKUJHQRBkpWekPfDXQRBEu87XVk6J0GQZGVn5PtgN0GQxPdWV5LMURAkWckpeT7UVRAk8bzXpadyFgRJln5Ofg90FwRJ/G52qYlKEARJlnpSXg8rRRAk8brbpaUpSRAkWdpZ+TyoNEGQxOd2l5KkREGQZCmn5fGQUgVBEo/7XXiKkgVBkoWfV/wHlC4IksS/4YUmQJAbePk1pws9s7jLEeSf7pAk7h0v7JUjyH/RIsnCTi3mYgSZ91ZV1TcnJyf1eDzeUlR56dKly13Xzf6GOx+BCSDIjfI2BoNB3bbtSNElcigo5rEDQQaDr6uqqpumaRSVIIeCYj47Shfkq3PnztVbW1tjRSXIoaCY146SBflyOp3WOzs724pKkENBMb8dRQrSdd367D3HeDyeKCpBDgXFPHeUKMgX8/ccu4pKkENBMd8dpQny+dra2pXRaLSnqAQ5FBTz3lGSIJ9dv369nkwm3yoqQQ4Fxfx3lCLIp/M35N8pKkEOBcUYO0oQ5JP5NwG/V1SCHAqKcXa4C/Lx/A35vqIS5FBQjLXDWZCPzp8/X29ubv6gqAQ5FBTj7XAV5MPj4+N6d3f3R0UlyKGgGHOHnSBVVX0w+9+qnZ2dnxSVIIeCYtwdboK8P39D/rOiEuRQUIy9w0mQ99bW1urRaPSLohLkUFCMv8NFkHcvXLhQb2xs/KqoBDkUFD12OAjyztHRUb23t/ebohLkUFD02RFakK7r3p5Op1cmk8nvikqQQ0HRa0dkQd6afxPwD0UlyKGg6LcjqiBvzr8JeKCoBDkUFD13RBTkjYODg3p/f/9QUQlyKCj67ogmyOuHh4f1tWvX/lRUghwKit47wgjSdd1rXdfV29vbfykqQQ4FRf8dUQR5df6e40hRCXIoKJaxI4Igr1y8eLFeX18/VlSCHAqK5ezIXZCX27atB4PBVFFJBDnatq0UWSPtGA6Hj85+w36OrzlbQaqqeqlpmpkcJwpwEeSY5UQQRdu6HbkKcnX+lUOSNIocCCKpW7okV0EG8++SX01NG0kOBEltWz+frSCzqKmSRJMDQfQHnroxa0FSJIkoB4KknrN+PntB+kgSVQ4E0R946sYQgtyNJJHlQJDUc9bPhxHkLJJElwNB9AeeujGUIHeSxEEOBEk9Z/18OEFuJYmLHAiiP/DUjSEF+bckTnIgSOo56+fDCnJTErc/tcyPmuiPPGVjaEFSguc6iyB5NYMgefXBDytm1geCZFZIrj/2vQRM/Lj7EiDzCAhICfAVRIqTZW4EEMStUfJICSCIFCfL3AggiFuj5JESQBApTpa5EUAQt0bJIyWAIFKcLHMjgCBujZJHSgBBpDhZ5kYAQdwaJY+UAIJIcbLMjQCCuDVKHikBBJHiZJkbAQRxa5Q8UgIIIsXJMjcCCOLWKHmkBBBEipNlbgQQxK1R8kgJIIgUJ8vcCCCIW6PkkRJAEClOlrkRQBC3RskjJYAgUpwscyOAIG6NkkdKAEGkOFnmRgBB3Bolj5QAgkhxssyNAIK4NUoeKQEEkeJkmRsBBHFrlDxSAggixckyNwII4tYoeaQEEESKk2VuBCq3QOSBgJIAgihpssuOAILYVUogJQEEUdJklx0BBLGrlEBKAgiipMkuOwIIYlcpgZQEEERJk112BBDErlICKQkgiJImu+wIIIhdpQRSEkAQJU122RFAELtKCaQkgCBKmuyyI4AgdpUSSEkAQZQ02WVHAEHsKiWQkgCCKGmyy44AgthVSiAlAQRR0mSXHQEEsauUQEoCCKKkyS47AghiVymBlAQQREmTXXYEEMSuUgIpCfwNjs5oLFaZQa4AAAAASUVORK5CYII=" vertex="1" parent="1">
          <mxGeometry x="140" y="80" width="50" height="50" as="geometry" />
        </mxCell>
        <mxCell id="M7bjFKGv_57T8ZOS4i-B-10" style="edgeStyle=orthogonalEdgeStyle;rounded=0;orthogonalLoop=1;jettySize=auto;html=1;exitX=0;exitY=0.5;exitDx=0;exitDy=0;" edge="1" parent="1">
          <mxGeometry relative="1" as="geometry">
            <mxPoint x="400" y="105" as="targetPoint" />
            <mxPoint x="447" y="105" as="sourcePoint" />
          </mxGeometry>
        </mxCell>
        <mxCell id="M7bjFKGv_57T8ZOS4i-B-2" value="" style="shape=image;verticalLabelPosition=bottom;verticalAlign=top;imageAspect=0;aspect=fixed;image=data:image/png,iVBORw0KGgoAAAANSUhEUgAAAO4AAADICAYAAADvG90JAAAAAXNSR0IArs4c6QAAIABJREFUeF7tfQt4VMeV5l/3dqtbbwkJxBth/DYP4WCDsDPGdtZxYoTlIBzHSWwYx/kymc1nvJMvu5t8O8E72cxmnN3gzST5ZpKsIbPOYxCxQNieZOJEcmyEMTbyGzAP8QYhQC9QS33vrf3q9oNWq/veuo/uvi3VtfUhdVfVPXWq/jqnTp06h0A8ec2B+oYmmukOEIKndm5v3pDp94j2+TlA+IuKkl7kgACuF0cl8zQJ4Gaexxl9gwBuRtnr2cYFcD07NHyEJQJ38LYGvkocpUpea42XEqoyB8OyXEQAN8sMd/t1ycAdWL7KlVdMe/pxAVxXOJmZRgRwM8PXrLUqgJs1VnvqRQK4nhoO68QI4Frn2XioIYCb56MogJvnA2iTfAFcm4zzSjUBXK+MRHbpEMDNLr9df5sArusszYsGBXDzYpjSEymAm+cDaJN8AVybjPNKNQFcr4xEdukQwM0uv11/mwCu6yzNiwYFcPNimISqnOfD5Dr5AriuszS7DQqJm11+e+VtArheGQmbdAjg2mRcnlcTwM3zARTAzfMBtEm+AK5NxnmlmgCuV0Yiu3QI4GaX366/TQDXdZbmRYMCuHkxTMKqnOfD5Dr5AriuszS7DQqJm11+e+VtArgpRqJ+5eqNIGSRVwbJhI4Vse9ZBAxxkd7eqK1obKxoa2nptVc7+7UEcFMBt6GpDcAd2R8Ob75xvIeuqW9oWg/QJ4gqPbDzxS2d3hyF0VQJ4Argms7T8QzcZQ1r1hLQZ6NM6KUgT+5q3bLJlCk5LiCAawLc/qm1rg5R2Zkuvb2RWde51m7B8f16W27SGqOTtTtegbv802vqqEz3jhkIStZ37NjyjGsDlIGGBHA5gPv+Jx91hfU3/W4zYoA4/9mvY2S2c/AWHNuPqt98X6fvRN0dOL4ovuV1RHP95qfi9ccjcNmedliV9wIk5cpMQTftat26zhETM1hZAFcAN+X0Gu/ArW9oYupwfEXuWdaI6l0to3jhZfAK4ArgTjjgLlvZtIIQ/CnW8ZGSKvQ9+h1o+19HzR9Gb2+9Cl4BXAHcCQfc+oYmBtr4nuLUI9+Fv7RS54N67ANMbf2h5yWvAK4A7oQC7rLGh2qJqhyJdfrcHQ8D8z8+igf5AF4BXAHcCQXcqHPNE7FOn3zkuyiISttERqQGL1nnlaMiAVwB3IkF3IbVR2KW5FD1LPR/9ptIBwJ513ZMevOlUfwhKlnsBScNAVwB3AkD3ORz23N3fA6Y/xeGhzbF255B0Yl9CWVoV0BWF+faPVIAVwB3wgA34tqIH8TV5Ic3oKCyxhC4qqaietM34RvqTyy3uaO1eW0Gj2lNmxbAFcCdSMBlB7X3xzp8+is/hE/2mYJkpLcbM5779mhLM8Wdu3Y0M5/2nDwCuAK4Ewi4V/a3g7ULMHTfV7lBp5w+hGm/jXio6Q9BZ8f25sXcDbhcUABXAHcCAbeJxjrb/RcPgSywdgFM2vMiql6/kvCbIndWZgFcAdwJAdxkb6mTn/tbFEyaZkkOhocGMP3/fiOhDu3qaN0611IjLhUWwBXAnZDAPfXY9+EPFluH0buvYPIrv4rXozna6wrgCuBOCOAmW5RPf/kZ+PwFloEbHr6M6T/7m8R62zpamxstN+SwggCuAO6EAO7yVU0bKEXcNHzmKz+EzGFRTsWcgrZfofz9V+JfBWSlMtvnugK4ArgTErhnv/pjSMTe9FdOHcS05//XFXU5B0Yqe5Q7FPNuVq9vWGPNNMjzckI3gqKOFWVRJSb6RXp2tY1AcjWcC1HRl03XwWSJ2/3XP0nr6mg2RRRlBNP+Ke7uzIpn3SFjHAD3ionfjOF2vnczHAx7fz6GrrHDN4467R2tze6E6+B42RhV+a/+EbIkc9RMXaTwhR+jpOvdyJc5ONMVwLU9dKKiQw5kFbj1DasbAfJ8jOZTj2+EvyBguwuk82VUv9Ycr9/R2hzHkq4FUtRR0ApCrtz7BWgtQCoAJEaS7AQlXQz8ATn8Nu9eWQDX9tCJig45kFXgJp/jnnr07+EvYRiy9ygnDmDatrjbM/TtBCF1sS2WvVYj0hsa2UR98rZdLb+ORBZM8Ywr4LJgaX017kRlZIHd2MOiMQ4sb7A9DokVS3e2IhaR0a19M2s/RisLiD4803kAOtZmLAAd2yocX+SOGWHW2+3xrQKArAI3EhzOdzEucT/7LfirZ9oe15HBXszY/F9t1+erSLsowYZd27dGJmPCM+6A63aUQwbc8w99nY/PJqWqfv39UcB1Y//M9syJwHU7k0GmjHPZBi4bmsR0LWcavgZ59o22xzU8cBHTf/FNrvqa7EOotApKoGhU+cDgBQQu9XG0MRbAArhp2BaLciiAmxmreo6AG89QMTDvYwjd+yUO0KQuEr54BtN/eSWEbaxU74zrMFRahVBZNYbKqhAqnYxhA5WcaCoCAxdR3HsGlSc+RGn3UQQHL6Shi3ZRStaxW0kCuAK4KTkw7enH9c/HlcSN5ISKn+PwXutLxaDw2S5Mb/4ewjOuRb8vgPNz5uPCrBtBHViqY+8pPXcMNR/txuRDb6VbWDYL4ArgThjgjjFQrfkm/FNm2ZK6yvF9CIeH0V0yCeFgia02zCqVnz6Iqftfx6Tj748qym4lCeAK4E4Y4Or73JVNvSAoZ7/3LH8AdPE9ZvhJ+X3P8GX0Dg/bqmulUlXXO7j2z79OrKIb9QRwBXAnFnCTMhjYuSV0cTiE88NDVvBnq6xvZAgLX/gRmBEr9sRuIwngCuBOKOCOCRh324NA3Z3cwBoIh3F2aJC7vJOCtW/swLR9OxObiN9EEsAVwJ1QwNXV5aT8xyfXfQ8FRWWmGAupKk5eGmDOFqZlnRaoOvourk249wuKvoBPqY15VgngCuBOQOCOdn88f+tKaLfcZ4q1roFeKDQHoI1Q9mRHa/PGGJECuAK4Ew64qaTu6fvXw2fgdXbi0gBCqmIKbqcFxkjaSINjLusL4ArgTkjg6jmEFKUzZmFmTDjV9F/gr5kzhh9nLg9iUAk7xaRp/clH9uLqV7eMKkdB3w7K6orkywcCuAK4ExK4utRNcshgnyUHkWNHPuzoJ9PP7L2/w4z32rlAywoJ4ArgTjjgRh0xWBibMfeBz97zGKRrlug8GVIUnLw8kFHMBgcuoHbPC7q7Y+LDJK2kSmvTBRsQwBXAnTDAXd7QdD8FWBqSMYBlvssDdz4Mf/QiwLCq4vilUWlHXAVwsP88phzcgymH34J/aMzisC0gK2uN7uYK4Argjmvgsr0sFOVRQujaWJa+5A6fXvUEfLOuj38c1jQcHeS5tWMdy6U9x1B9uBNTDr0FSRkZ0wAheGrn9uYNZi0L4ArgjjvgMicLTaL3EwmNRhfbzy9dhdBNH0dB4RVfY41SHB7oNcONpe8nHf8AlSf2oay7C8H+nnR12ynFBt58RAK4Arh5DVwGUsh0jkZRFw0Tw4L8pQ1tMVw1AxeX3Adt1vXwBwrH9P1gf/yu/ZjvZrzfDtUXgOpnP0Eo/rGhb2Q1jKKLZ1DUeyb671kzkB+lIBusJszOCXBj6otZj3i+JwRxtUJEwMinCBj63VL+yJGE1hKQxPAmhgBNnjt91y/HpQV/AWnyLMhESjm1DvVfTOsTNXX/LszdvZ1nSvKWaacgm6wCNtZ4boC7smkFIfgTbw9FOcEBOxzou/E2DNUuhDZlDvzF+oWgtM+RgV6oBl5RNz//NAKD6aUxJ33svKeFyr4Wo3hSPG3lBLjJoTJ5CBVlBAfMOHB5+rUYvO5WhKdfDbl8clrJmtwOM0Qxg1S6p+LUAdzwMr9ywNphxzkEpJcQtFFKOztat7LcvK49AriusVI0lEkOjJRVIVw+Rf9RyiZBLa6EVlQOWlgCGiiCXFgKWbYeJ/n4YD+GNdWQ9Bv+uBkVJ/fHy7CL7KA0dQRGn6/LqTTl4WNOgJvoscICab3+8H83pPXqskqevogyggOWOMCcK5iThdFT0nMcC176SWKRrEanTEdbboCbcK2KWeh2PxTPxZSSzqtKK2znebE0kqLwhOEAj6RlzLjq9W2oOfB6Al/oA26rvXaYnnPghoPF2LPmW4a0zy2tgGwzQZMdpog645cDlFIcG+xHmKbf08Z6z85cF2/734nMONrR2uxO4G6HLM45cEeKyvHm6v9s2I05JWXwuxA9zyGvRPU854CiaTh+aQAqB2hZV2d3/h4z3mURXSMP29vaPb5xm3U5B26odBL2NhoHHJ9dXIYCG4YHt5kl2stfDjDf4xOXB8AkLs9TMDSABS/8CAVDUX9lir6OHc32c5bwvNRCmZwDd6hiMjobnjQkeWZJGYJC4loYVlE0kQNDqqKHnLHyzHrnZcx8++V4FV4fYivvcFLWNnCXrWz69q4dzWNDuXNQkxjz59KkaXjnvq8Z1ppRXIpCm9nDOcjxRBGiKqDjvI+5YDS7AM8uwlt5xkhbAG5nnV++sul7O3c0G+8RDYh2BFxC6CqJ+Bte2/7rU1YYkwjcgerZeO9TXzGsPqWwGGX+AiuvyKuycl8PSl79VwwufwBq5TRP0l7S9hyU6VcjdO1ST9KXiqi+kWGcC1m/BJ8sbd1MXL30U58vk3wjmwHa1dHabKxqZg64zE+YdoFKn+3YsWU374gmAre/Zi7evyeS7iLdMykQxKQUDuHJ5X09xyH3ncPwvJt5Scl5OV/3MVRu+XudDrWiBoO3rcZI7YKc0xUjQOo/j/Lf/xy+s0eglE/B4J2f19NueP2JxT4u7OsGu6x+ceaVa3tGtKeStlT2zXXDqeK2VauXaBr5KQjqojeBbGmsjH7bEre+oekjAFdHmdCvgf7l661bt/IMaCJwh8ono3OV8cJT6i9ATWFx2qaJMoLC9/6Mwnf+CGngAvrvfdzz4JWGBhE49CZK2kdFqQclEi7d3oShhfyxfnl4bqdMQde7KG3/FaQkH91Lt6zE8LVL9IXGaw8zPTEp2z8yDAZaFuKUAffstbfixMK7oBSMvRGU2IdM7W2XNqxeLYEwT47JccwogVmvv/Scrdv6toC7/L6mh6iEXyUPGgVhFwd+MSuIf9myZUtaP7JEzyklUIg3HvxvhuPP9rdsn5v8kNAgggfeQHBfB3znjo/6emjRnbi88G5oZVWemlv+kwcQOPiWDloG3nTPyJybELr+NgxfvTjr9PuPf4jggd0I7tuV/t2SD6FrlmD42lsw4iBdpZudC6sqzg0PYWgkpAcSZz8FCWksmT2lZ+5i9MxZgJEUlw5SWZITYxlbpXXNmjXy8RC+COARAjpmJXYidS0Dt76hiZ3dPG3cCfoeqPQLTfL94vXtvxpzITH5ksGuz/+dYZYznyShtuTK7Q7f+ZMI7t+NwIHXIRnkF9UKSzF8/TIMX30zwlNydG6uKvB3H9VVzUDXu2DAtfIwh/nQDcsRur7eSjVbZYMH9yCwbxcKjo5OMmXWGKNxZO4iKNWzEJ46F9SXfXvEZUXB4OnDKD32HqqOfYDiCyfTks2k7vnaBfpPX828eDm3pO3SVZ+rkTTlERDtEYDMN+KfXfByA/e2+5o+rkrkCQK62mwgE75nloEPKfAhIfiAUnSqKtnr99GvUIq4nyNzwGCOGKkeWRlB8flTmDPUB1/PMfjOnQDby1p9mFQIT78Gw1ctyqgBiIyE4D9zGL4zR+A/e1j/nX3m9AlPmQNlSi3UyTMRrpkLpWqG0yYh9/foC4r/zBH4zhzWFxinD7OMK1NmQ6meDWX6PISnzoNakjlfc+lyP7SP3oS/621UnLhyEYC3H8MllbhcORUjwVJUd70DORwfq6MBWakzivvE3rH8gQemQPHNp1RbQAiZTykWUIL5BEi/t0sijoJslTX6zGsvNP+Zl25D4C6854vFRQWhlSB0JQG+wNuoeTk6DJBI+AACXJx5Iy6XT9Fj8BSEBuAPXYJ/aFAPosUSH7n9KJOmQ51UA62oAlpxObSSCv13Nfo79QcNXyld7oPcdx5y/zlIfT2QB3p0o5jcfx7SJXfDnqQjhAZLEJ4yG+Gaq0CLSsC0Cy1YAq2oFDRYCq2wBFLoEsjl/si/oQHIQ+zfQfh6TsB3tgvywHm3WZuyPS1QBK28GmppNdTyydDKqqGUVUErmwy1vNqYBlXRtSr5Uh+kSxfH/G5Vg7HQ4W5QHATANMazFDhDgKkA2Ma+BiA1IJT97lqOTULxnAa8RMLkpY7fbUmX3ToGm7FdqW9oWgkg9uN8abfALVFUcGDCc4DiAgFeMgIxWbpq9UKZSoso6EIA7GdRdFWZ8PwTDBAc8AgH9lKgE8BeWUOnv4js5d7jut2BxATDhz52H7qLTRwPJAlyGds25Ixkt1kg2rPBAaqo0C4PAQYRK6w0WzZ0ATe98dvEKmPy9FhpL1tlc4aCxLNcdji+76rbTfssFRWCFPhNy4kC45MDdHgE2pBzQ1+MO7IE3PzqL+CLxTdOSmXpZS7mDrgJeVv0y/QrvgQMDxvyioGWgVc8E4wDGoUWCoGOuJt4a8aZDzH7wGsJzPTGJXme0c0ZcJc1rFlLQJ+NEfnmXY9jRDG5csXU5dJiQFyq5xnbcVGGhhVol0MA5x1a3k4XKZewaOcoH6K8UJFj/csdcFmaQ1U5EiPkwJJVOF80xZTvUnERiN9nWk4UyH8OMLWYqcduPxJLb7D7NwiEop5rFH3U56tzwx/ZbVrTtZcz4DKCljWs7iQgzIqN7jmLcGjOLab9JoECSIXG56ymjYgCnuYAM0BRphorxtEX7XZizrG9mN71ZmL1Udne7babzXo5BW6iz7K+z719HWCW9ZtE1WUpp6Rnc4wm1Lt0A1RoGOCMVGGVOZUDZ3H93tbEap6I2mi1Hzmd/fUNqxsB8nx8n3vHX2KEpk4PkdgxEgxACo7N22K186K8dzhAVRV0aBjUJFyqE4oD2jBufvVfrjSRR1bk5H7nFLgrGhsrhlVfPK/DwY814Fwxx1UxIXWdzF+P1WUW4xFQdqLAFw7KFv3MnrngrW0oHjgXr08p7uTNjmfrpRmslFPgsn7VNzSx1Az3s9/1u7m3Pmh6LMTKCqmbwVmRpaaZdKVDI6Bm2yMX6Jl56l3MOpgYHxl5t68dpXW6wBNHTSQfC71z+xdwSeIwPuWR1F1SXYTyAhmdF4ZwPmQcOd8RM/OlMmVSdjgjFuNULJjUfwrXdb6Y+FVeHf2k6lPOJa4udVc29YJAv9fHLjl/dNVyQDW3KHpd6n75+sn46xtHH3H92/E+/OTDc+gaNHY2yRcMWqVTP5dlxieO8bXadqryFZfO4YY3tyV+xXVdz413Z7INjwB39UYQ8kSso3s+8WWER8wjzcPDUvfppbNwz4wybG/Zjl07O3CuuxtrH1uH2z5+Oy4pGta8fBAnL7nrCZTJieK4bU2DNsz2su6fy6ajrTTUi/m7m698TdFHNLJi54tbmMN+Xj+eAC7LKk5lujfGya6F/wGnK+ZwMdaLbpC31ZTgx7fNwff/5z9g/77I5e6amhp853vfjffp+a5ebHgrfZQGrs7nSSE6wo54Rly7GMDT7TEWZI9lIuDpg1EZTwCXEZjojDFSWIa3bv9ixNLI8UjBIEgw++FS0pH2P5bMwOwLR/HDjf9nVJGfbvq5/jeTwqsaV+HWbR9iWOXQLDh44MUiDLDMvzhTjhTp+syO+Je2/2zU115KH+LGWHkIuKN9lz9Y/hD6fPzBBaSSQhCfN24OvXjvtXj/lT9iy6//dcwYVVdXYcasWfiPT3wNj71yBHt6rMf9dWPgM9kG28eyRTfbgI31qf6V0aAFpc907Ni6PpN9znbbngEu63h9QxNLFqzryKGSSehc+iDYJOB9pLISEMncgYO3PbvlfnnnXAx8+DZ+/s9JEyja4LLl9Xjsy1/Cqt9/hKOD2dvz2e0Pbz39eIedyWbQicKQFkJQ3/7T5CKbO1qb1/L2IV/KeQq4yUdDhxfeg7MVs/l5SQjkcialc9utR66pwoNlYTz9vX/A0OWxEvWxLz+OZcuXYdFvrUVT5GdEdkvqvsVRtTi7b77yNrZgL2v75wkBWtbJ3M7wFKOcKHXZ129yukHGm5LlyNW/HD4BieAPn74Ohz94F7974d9w8CMWOx6onFSJe+/7FO66+258840TeOF4Xw6pdP7qCGDDOmhz+UgSwdK20ZKWgr4dlNUVZlEac0m3k3d7ELij/Ze7Z96EQ/OWW3M6l9lFBP79sRMGpqt7x7RSbLh5OiYFfOju7kZoKISp06aioKAAP9vfgx++PybcdCbIyEibXgEs65yPUNzSHjH6xZ7xDlpPSlxGVGJYG/b3B7d8Bn2Fk6xNQgJIJcUgmc6rq1H4NVXPu6qwdyXtsZvmVuLu6WUo9kl4o+cydhzrxZEBPmu5tQ5nvrQuXZnhKeyN8+cCLYyPvbp5woHWs8Bdxi7ZK0pnzJuKEbp7xeNQNete6FJhACTg3k0idotF0igKQ5cwbf9rqDq1Lz5x9q94FH0eS3niGM6URtThcPaPdYxoLwpfwqKOMVlwxqUhKhUfPKcqx4isb2hi5vsfxP7unjkfh65aZmsesjNedtZr6dE0XYpKmgafGkZx33lUd+1F6cWT8KcJ0n5k2WdwLlepTix1zrywfs2OgZXFebKxYJq/wX6JFHdqWWMTBrSelbixIU10ytBV5luboLH7WYToWe2oxIKQsN8JKGW6MYn/zexu7LtIWQISDOo5bdin7GE12f+EarqFzjdyGYHLAyi6eArlJ/ehgGVTCIf0782enhuW49ycRRjwF3rQ3GdG/ejvY6qw24HZrFGRpjQBZpz+ALMP7EwuMKFA633gplCZXZkADhuZtOTjWLLiLiyaXoW954fw3Xfz19Cks0JXhxVQJbKH9eIjQ8O8/e2oOntoFHmE4Kmd25s3eJHmTNLkWVX5iso82sqcSWaka3vxZz6HhYsW4ZrqMkwuLAA7fog9I4qKW7Zf2efmgj6779RVYd3YpFiz2tt9oc16LCLjjXuehz8xeRoL8EbI+l2tWzbZbDavq3keuIy7ibGp2N+1V82FElahqAo0VYGqqFA0FZqqQmU/7G818jfbpxo9U2bMwqSb61Ezew6mTqpEdWkhqoJ+/f5sod8HP4uabfI0HzqHv3u726yYJ77XvZsYWJl3k9f9pImE6r7juKbzpWTeHSUqaRwPt3zsToq8AK4O3oamNgB3xDp662fXonGpYepRU54QQlAYCCAYDEB24Co5rCi468WPMKiY74dNicpAgYihKSpZs3QP1mk32Pls7aFdmHxijHfZtoCsrB2vjhW8fMsb4LL4VCFVbouFc2UdXLrmC7i/vo63r2nLMQAHAwEECvzw++zFbP73Y+fx9T1nHNPiSgMahQ5WBlImYTMU5tQVWlM0wu7Rsnw+yYbBibqfTcXnvAEuI14PLqf4uhLPd+ffsxIP37vCtTnk8/lQ4JN1DycrINY0ii+9cgRvXnA/ny9P53QVmKm/zA2RAdb6kTfPazJahu1Kpp94BzMP7h79Hoo+ELq2o3Uri08mHi/6KpuNin7pXqJtieCdt2QZHnu4yayq5e9lSYbf74PPJ8Mvy/D5/YZGnGMDITT8+2irp+WX8lRgJ1laVJqGY0DNQ6Qm9LVkZAA3vLU9VSLzdir71uZTlgGeIXRaJq8kbqyzqcBbPXUa/tM3/sYpPwzr6+e9usHKB1mW9CuEbG/Mfpi6zZ7/d6AbT793JQSoI4JiAFU1UGZIYk4hTJq6lGLSEW0uVWZ72WmnP8DMAx0ppCw2dLQ2b3TpVeOqmbwELhuBVOANFhbi4W98C1eXW/SScjikBEQHMpPQ/QrFuvbDODsUDXbHOMxAzQRi1HlEfx2zdkct3pQBUf/7yuf6Z+MIoMksZqyo7D2F694eFX0xVkwYoEzmZN4CNx142ed3ffXr+MTVUx3C0X71F7v68HTnafsNjPOaZZfPY957LyMY6k8hZcVelmf48xq4rIOprM3s82Vr/wqrFs7j4UFGymza14PN+3oy0na+Nlo80o/aD19FWd+pVF3YHJCV9RP9mId3bPMeuDHwDqs+5kGjZ0SIPXM//SAabluMqYW5iUUlwBsZicLwJcw8vAfVZyMBBZKedkqxIV9TgfACze1y4wK4MaYke1jpk2b6HCxf/RDunjvZbd5xtfe3u0/iz6cGuMqOt0IloT7MPLwblT1HU3XtKKVYKwBrb9THFXB1FXll0woCtCQeF7HPr/5kI+77+FLUFGVf+j756jF0jsNojqmmHJEIyge6MWf/qygaPD+2yAT3MbYH07G1xh1wE1Rndlgfd5Fkn1dMqsbNaz6PT1w3yy3+cbfznT2n8PKJJGMMd23vF2THOhV9pzD3vT/Cp6SI8MGyCEjYWCApG8U+1vl4jkvgxlVndhmfYkOy9J107U1YePe9uOeaac45aKGFn37QjV8euGChhreLsktSJUO9mHLifUw+9WE6Yo9SkA0T9RZPpkZwXAM3QfqOMVyx76ZcdQ3m33MfPnHtzEzxd0y7Lx7tw4/ePYvLHr2QwMOIQmUIVd2HMOPwG5CYB1fqpx2gG4WbIg9HrZcZ98CNsUTf+xIwAI9JSjRj1kxc88lGLJk3U4/KmOnnvfND+Mf3zmL/xVCmX+VK+0QCCkcuo/zCcUzr6kQgZGhs20YpNgqjkyusT9vIhAFuHMANeqoTFjFhDICZ59Xsuz6N+TfeiCXT9KyfGXv6RlT803vdeOmYN2Mr+6CiZPA8qs4eRPXp/UaSFSwcKgHZFJCVTWL/mrEpM6rhCQdcHgCzMlNnz8bsO+7FzVfPwexS96JEJg9r28l+PHfgAg725Vb6yhJB4fAAys8fw5Tj7yM4ZLqgHAWlLdTn3yguAGQHrIlvmbDATQIwyy0zygKdyKSqmxajcuEtqJ1Wg+srizC92N0jpSFVw3P7L+C5A9nxtGKXIwLKMIoHulHZ04XqU/u5guJBv15Dkg/WAAAR9ElEQVSHFoC2iL1r9sEqgJuC59E98FpQNCZboZOL++YtwJT5daidMR3zqkswqySAEp95iBuzof7wYgi/PXwBfzju3rGRRCgKlGEUXe5Fad8ZVLMIlsODZqTEv2dqsERICxTSMpFDxXAzLEsFJ7zETeZzxPfZ30hAG5NdKNONSShYBjLzKpTNmovqKTWoqSzHjLJCzCwpwKwS63l7Xz8ziN8cvIC96Zw22JVC/T+qS0pZU+BTR1AwPITgpYso7u9G6cXTOkBl1WLWgYhUbaMgLUE53CL2rFlCosXXCOAaMCwBxCt4JHGqpkKF5RiZMQ++ohIECotQwELkBAMIsFhXAT+C/gCCBZGgdETTILE4z5qqA5IdtezZfwTdPT2Qw8MoCA0iMNQP/xCTmO5cnNcNSxRtlEidkopOIVUtIihHxQVwLTCeqdOShBWUggG5zkylttB0VopGrb9dhKBT09AmjmyywvaMvEQA1wFb2WV+TUYdoVodCKnzCJiZR38XKO0kEullAIXP1yUsvw4G2oNVBXAzMChMMrNmmXRm/1ImnYEK/XfQisRIlUavj0rI3qQyTGJ2sc80ShhA9d+DPqVT7EczMJgebVIA16MDI8gSHDDigACumB+CA3nIAQHcPBw0QbLggACumAOCA3nIAQHcPBw0QbLggACumAOCA3nIAQHcPBw0QbLggACumAOCA3nIAU8CV/cRVnxPEELqKKWdANqFe15uZ9eyxodqoSiPMioISG/AF94sHD5yNyaeA66eE0imf4p5GsVYQ0HWiYBjuZko9Q2rGwHybNKY9FLZt1i4UuZmTDwH3PqGJhZWdVRGgihrejtamytzw6aJ/db6htVHAFKbggvbOlqb2fVH8WSZA14E7sVkaRuXuhR3CpU5uzOEqchEVY6keatYTLM7HPG3eRG4aS+aUgHcrE+TaGQQtnVJ+XS0NntuDmWdSTl4oeeYXt/QJICbg4mQ7pUCuB4ajARSBHC9OS6eoUoA1zNDMYoQAVxvjotnqBLA9cxQCOB6cyi8SZUArjfHRUhcb46LZ6gSwPXMUAiJ682h8CZVArjeHBchcb05Lp6hSgDXM0MhJK43h8KbVAngenNcXJe4EU8bdQ6V5aN2/FhzfY5b37DmDqKiL18Cg7MLGcOqf1G66dXRuqXdydTLZ+DGeEOJVgvtissmIaSN8cQpb5zw1Wld28DVb/Bo8v2gWMFu8egxhdM9BJ2gpIsSrQWSv90I0NkC7vKGpvsp9PCpjG49jGqah4VH7aQUbRJB587W5m1Ome6kfozvhEqNgFaXxoc4+RVsonZS2feM1cXUbeAuW9n0bULoWoBUUNAWSZWecXORjF5SeRR6CpmU/tWjecPmpkY2EQ3tbtJhd4zZ+I6ovjsS5ia7jlURxVcbm4e7djQ/ZRm4kYEkT0QYY/Mh6KSgG3dt37o5uYVMAjeyAvu+DYBl59PjHNt4etmEg+x/yioIbLwrXkW/VqeGv01AGN/t0s4mQScofYo3255bwI1Kv2dTzRs3XFmXrVr9KKHYwAXW9APRRgndlGpeOhk7nroR+gmbl0ZCRG+Kgm7iBm50JfsBT8M8hEbLsBXkqcSLA5kA7pX7vVjvaNIndYwxMNMATlhsGO1uPm1EJU+aSRk3gKv3QfP9yUAra+9obTadsKk6r9Mn4QeGGp9lrulB5p/kXdwsN59QIaKBWJ+XXMCNNs6yuGfkYQAIyuqT7GK228CNTDz6rMOV2KjfvRTkyUzcFc4C7aCyb66R5uAUuBygZby1DFwjCe7iJG0LyMoDmQgY4HRsDYGrG5o05Xl3V7M0bCXoJApZR2W6Nx3jrapU9Q1NTENwW1KlJI8tPrtat65za9JkerGM0UkIntq5vTntouwEuJygZaRYutcbpel5N7Ung3HrJSq500wzsTLubszLtMBNF4nCCoE2yjJDUNr9Gy9wI+kx5R8Q6HuGrD1ugXdZw+pns0i7obSzC1wLoGW5lbjvWS9rWLOWgGlQ2X3ciMAS3fawBcfWtiDW40hOqRRPjkBrOhK8A1y/qmlvVrSE1BS3dbQ232namTQFsgxalpHsmY4dW9NqJXaAawW0ZhI/kU2OQBtJ2M3il91hd2ycgNcKT0zo2xaQlbVjgGsZtBGGtFCQNj1zXDSlY9QgVEcIZabsFSC6NXSOXaaxejzAtTHxt8XyxUoa6Y2pRHoKTYlWsIx7GqWNvBn29P6ZgCEdDyzRzvjOjGMEbQFZbUveh0XO08PsuIjxXQ/yluohKllspAZaBa7FCbq5o7WZSysyoyO5b9FMh5uIStpS9Y+NL3y0kVL9hIF3XtpWm60Kk8RcxqxvyelSRwE3IsrlvZyGnKMUZIMVo0x0xWT7KV5GjRoPM+AuX9W0gVKw4x7zh9JnqM+/kfdIJ7qgbeRfsekDVqyS0YBsTI0yfij6iISNBZKykddoElXR1lLQtbEFiE0MULLeLBSQGWASI2BkCrRR+ln4HJ5jsHZKscGsX6MkuW7AZEdJPNKYdgVkdTEv79l7LC3IwGaiko1me+pRwK1fuXoj9DNas8lDnwn41A1WiE9s0RLAEioaATcKrLSGrVgz+oSV/Y28gE3mhD6RgRaObPS9AVmZy8Mj3onplHazYU31PS9wMwVaRlN9w5rnTf0GdM2PrrWyWCb3V188KWFaTLkhryxoVLwLMu9CGqMrDlyzAboy8d0Jk8rNJE7gGkQiTByDzQFZWc8DJqOBixq/2jjUZy5VsL6haZOROstoYQMblNUVTmm3Cl6zecEkbiZBa/b+GG+cLMajpG/E0aXFbGzNjtFYm7wLMgCueZJIZxy49Q1NLCCYobXLyeY81YTRpaRE20xXuGjldBKX02hhmTlm4B1WfUx1Trt/1CeVicXUJIqiTkKuQKureRE1Mm2wuICsVJo4V4xaOHn3tLFKZgtyJnjDBTgOqcupwdqalzpwzQYnMnuMrY9WV/JYeV4V1wgEuRjc2IoaUmUzyWt4RmkqbSn6qM9XZ1e1tzsusXqmc0N3oTTwU79CgOUJaqpmZog3nHtSw3HlAr8NSTtKVTabPGxV29W6Nf0lAoezg3fPm0p68QDfzHLqhHxdYipKp5HWYKRW1Tc0pY0jHaXryY7WZibZc/KYApePKsugZc2aaYFua4AWVX7DcalvaGJHbMwBKOXjVFPQJa7Z5DFT9/jGzrhUfUMTu8FieMaWig4OdcTWpLHSJ7NBivi9jgWfqUSx4QpohW6esi4A1xb/ObYQlt0kjfpr0UvwaEBW6ozsDWbHP04xRTgGxlUGpWMexyROuV80U5PZHiwbBp36hibmmJ76mIugs2N78+LkvpsvOtaOlHiAaLUMx/wwatIWaKPCxERiuWMkZe+y5LvAjuM0ssLw7Ns4+wN7pWNMETNp4bY6YjTKhpM/haEnuo9gqma6x/bEsTrBzfiYagEx1DIo+jp2NPOcW1ol1VJ5B8B1xHuDHFI6/W5lUIgaNplKy8Pro0QljWZnrObGUucLMgNu+qMIir6AT6nNhsTSVz4TB4pk9cJsUjlVR6zMcDPVLqWab5C1wc4RgRV6ecua8ThNO45Ay7F9cyyx9HesXPMECOWyH1jZk5rNYze0QAZco72lKwxya5KMAa6Jw7lbqzIv/fUrm3rTGalS+eS6fYWRl04r5awC18oET0eHmSZlxb853Ts4Lcex6pYWomxgyhC4bjDIyiQxsxAnA9dkZcvqohOVEmkXwWRemk3ObGoLRmNkBbhugJbRYvZOJ9s3Gzd0LFv1jbdA7hyregq40cnPnfQrn4FrNjndUKesLJppJZOJA0asnlug5QKuhWuAif2yeNwDuwuEEXDdEoYCuG7M7mgbVgbMDLjZVvMdA9ckkoYVNpvxxo424rbl2Kg/VuaBFb4klhXAtcu5FPWsDJjZtiDfJC676xqQlDvdMGS6DdzoUSO7fO+a5VgAN4EDVi2zhqpymrNTF3E6pimjQ/cJYZxyCbxmi1o6h5ZUY2t+NHOlllvqvpUF3O589JRV2cwJI9l10ax8ttVNIyuxZeDCPQcDu5ODZ785pm2XwGvES16/eauWYzdujlk1UtodG2Ji4OntaG2utNu41XpmPtPJQDRTqQDnB928fTBbRFLRsqxhdafB9TFLRxC8dFotZ87jFC26AF5Dy6yJNmU5AqTLF2iyJHFXs4jvBpEXsjP5OW5TpDzeMVyZHdy+sDrBzTx9Ul00MHF55L6Ib5VWK+VtAZe9wCF4zdxB010cyZblOOd7XLN9JQBHwc94J4mZt0k6TyKTw+6sTH5THqZxXzSX0qkvJ/Dy1I1ytoHrELwc+9wxGkk2Lcc5B66+jzFW2UwvgzudIBzSlnkqp4zhZOYjnA3XQY7QKmnVXiNvKwBZWXiMxs8RcB2C14rvuhXLMTNCSaq01szn2O68zoqqHAGuWaxa6wGyrHTadOIbONybSjuOKBRWaE0ua847ViP9dsNMJXQrVrPdPjoGrgPwmvI2utc1LZfQebcsx56QuLrEU3xdhpfBXY7UH+s4D9PNvE3MjFpMcrkdjZ7Rz6maHe1oba5NN9AcKiGratntzi5QxyxMJp5T0TCiadN8xtuzuec1k7oAy/PDkZUvQkhWDH5Zk7j6JOQIber26s8DWnDcUOKRum6DNxq3+E9mk4bHbY4ziAALOfqUW4DkbcdM4jJHEY7wPbHXWbaXcM0Rjs6YLf4cTXAXySpwo/tMFundLOaxK4mQeAeEl+EcUpcxvpdSPGAl5m6q0eKUtHqQN56QP5wLDzPVtgTk8Do3vJN4Z6EZcGNRHnnBa2fxN7PBmPWFZ/E0a8PK91kFrr7X5XQoZwAA6Do7MWytnLHxTnxGO4+6n8D8jQFZecoOAKJ3OFnwbFP3OSuxrjgXHrZf7qIEG+zkcI2MbyRuNksyztOG2ZyIna1bCFmr53e1kiCNczsxFlsc0SpilViicw16xopagPQSFU/ZNV5lHbisE2bGkiTucCcC1hMzK8qj3LlALTA9RhPH8Uoi+Uz6boTPt5kngqLVxMm8mkKMIAsaT6RKNDl4UFK3GS1AOqA0+X4Csn5MNEaOfScvcGOLZ6YkL89WLmlummpXUU2HLWSpEp3btovkBLi65DU5HkqhNvQCpI1S2inpE4qwrHuglLKYvBUgWMEZwjOhaXuOHzYGOJqlHW2ghBno2HaBSaRaaKSWEFIHUBZv2lTCJhBvywhiNc50/H2REKlsorL7wBFc8/Pd0PBlBbhxzUf1sagq95upl1YlL79WkvDmKG8AdFKK3uh4VgCUSda0RsNoC5b35LrwMwhOYXVBT8fDlNn6rKg9ZoNj53unexJbA2yH0NR1bIE21hTv3t89co0Dl1kF7hXtxzw7g75AWlCbczEv7fi75wy4VtUe1yaRC/lfrE4c12iPNOQItDkCr2Fgb7vAjUoe09Qq0T5zH3dFtxRcEt2Nsc074CaoPS1m8Y7dYBAArgh6Vt5lcb9upelUZbknH8+L7ORW4mk3RRlXVeXk9jm1H8thhrI0trYW4pxK3MQB0N0KKTbw5vixOoGY3m8lbaSV9qMSg63QZsdcVppNLNtOVLLergXS6KVR4wmj3XYyZqP2eaz2ZhZdHonEAV7LwGX90nMYy9omswRdNge2PSArjbZOHgz2uE63gbG+pNzjpupodBKxYxDDJFcWmbSZyr4NPFZdi+2OKs7UqxHNt55qWO/i4mM5P7DdPjjNK5zyvZQ/VaqBP7Whmp20+BuEAXYWQM1l/hwF6Ho7R52x/hotVFaOCI3mCzdw4/svPVdOeL3tDPPRTOpWkkrbnfDJ9VIleLbR9jYK0mIlobeNd6SsEj3uYhH+7Urgo6C0xSrvUx6z2TquS2Gw4vCM4+VfVLtaC4pGGwu0a+NqkE/Kluqdqv+WgZvYSERVQR2hWh30YxP9YSb2OcxVMXa0AoCl52Dm+E6nXku8g2hWTj9XVtUVo2hnWediSY0T6aeUJfVqC8hqmx3VyYwWq9/r1lXFVydJWEFpJDUqBa1IUhnb2eeEoE1jx1yy3OZEs2FjDR9tpBR1hKBTk3yb7LSXsPgw8nqp7Ftvpx0znjEQR/nD5mWFfhwZHduof3UvKO2kROoMyuEWt8c1Al5dwMVw0eJm8rb/D7mpKrF7XOBuAAAAAElFTkSuQmCC" vertex="1" parent="1">
          <mxGeometry x="454" y="80" width="59.5" height="50" as="geometry" />
        </mxCell>
        <mxCell id="M7bjFKGv_57T8ZOS4i-B-14" style="rounded=0;orthogonalLoop=1;jettySize=auto;html=1;exitX=0;exitY=1;exitDx=0;exitDy=0;fontSize=14;dashed=1;" edge="1" parent="1">
          <mxGeometry relative="1" as="geometry">
            <mxPoint x="194" y="187" as="targetPoint" />
            <mxPoint x="263.0380592228744" y="136.74873734152925" as="sourcePoint" />
          </mxGeometry>
        </mxCell>
        <mxCell id="M7bjFKGv_57T8ZOS4i-B-15" style="edgeStyle=none;rounded=0;orthogonalLoop=1;jettySize=auto;html=1;fontSize=14;dashed=1;" edge="1" parent="1">
          <mxGeometry relative="1" as="geometry">
            <mxPoint x="265" y="194" as="targetPoint" />
            <mxPoint x="305.25126265847075" y="141.36373344661502" as="sourcePoint" />
          </mxGeometry>
        </mxCell>
        <mxCell id="M7bjFKGv_57T8ZOS4i-B-16" style="edgeStyle=none;rounded=0;orthogonalLoop=1;jettySize=auto;html=1;exitX=0.5;exitY=1;exitDx=0;exitDy=0;fontSize=14;dashed=1;" edge="1" parent="1">
          <mxGeometry relative="1" as="geometry">
            <mxPoint x="380" y="191" as="targetPoint" />
            <mxPoint x="343" y="145" as="sourcePoint" />
          </mxGeometry>
        </mxCell>
        <mxCell id="M7bjFKGv_57T8ZOS4i-B-17" style="edgeStyle=none;rounded=0;orthogonalLoop=1;jettySize=auto;html=1;exitX=1;exitY=1;exitDx=0;exitDy=0;fontSize=14;dashed=1;" edge="1" parent="1">
          <mxGeometry relative="1" as="geometry">
            <mxPoint x="462" y="187" as="targetPoint" />
            <mxPoint x="392.9619407771256" y="136.74873734152925" as="sourcePoint" />
          </mxGeometry>
        </mxCell>
        <mxCell id="M7bjFKGv_57T8ZOS4i-B-3" value="Docker&lt;br&gt;compose" style="ellipse;whiteSpace=wrap;html=1;" vertex="1" parent="1">
          <mxGeometry x="270" y="70" width="130" height="70" as="geometry" />
        </mxCell>
        <mxCell id="M7bjFKGv_57T8ZOS4i-B-12" value="" style="edgeStyle=orthogonalEdgeStyle;rounded=0;orthogonalLoop=1;jettySize=auto;html=1;" edge="1" parent="1">
          <mxGeometry relative="1" as="geometry">
            <mxPoint x="325" y="20" as="sourcePoint" />
            <mxPoint x="325" y="60" as="targetPoint" />
          </mxGeometry>
        </mxCell>
        <mxCell id="M7bjFKGv_57T8ZOS4i-B-4" value="" style="shape=image;verticalLabelPosition=bottom;verticalAlign=top;imageAspect=0;aspect=fixed;image=data:image/png,iVBORw0KGgoAAAANSUhEUgAAAMgAAADICAYAAACtWK6eAAAAAXNSR0IArs4c6QAAC6dJREFUeF7t3V2IXVcVB/C1T4NtrSmo+KAFidT68dCIFLTaFBKRphUiYrE0c/e9Jph7JtGXpPoUKkmo+KCYFESbOTfiOHefSbTqQwtN40sCph8+FIlg/TYBKYpQH4wJVTJnyyUpUsnMPXffs9e5e61/X2fvvfZa+/9LZobQawj/YQKYwKoTMJgNJoAJrD4BAEE6MIE1JgAgiAcmACDIACYQNgH8DRI2N+xSMgEAUfLQaDNsAgASNjfsUjKB1oHkef7my5erj3if3WOM/6SSuc9Em8aYl4j8OaLsNzff7F8uiuLyTFxshi7RGhBrd20myvYR0RYiWj9DM1F6FfNn72l/WS78UOkArtt2K0Cs7X+HyHwRDzGLE/CHX331pv0nT37737N4O+47sQOxtv93IvMO7kZRb6IJnPXezJflwssT7RK4mBWItfOOyHcEzlFcS8bQr6vKPKQdCRsQa3dtJ8qWxSVJcENAQsQCpNfbtXFlJTttDL1NcJ5EtqYdCQuQbnd+t/f+CZEJUtCUZiQsQDqd/hPGmN3js+TPjF+DFdNPwGye9AytSFiAWJs/R0QfX+1RvKcLKyvZlhMnjl6Y9OGwfvIJWJv7yXcRaUTCBeQiEb1ltUepKr9zeXmwGPJo2DP5BEKBjCppQ8IFZMyfWNUW547h26vJsx60Yxog2pAASFDE0t40LRBNSAAk7awH3b4JIFqQAEhQxNLeVAPIk0T0uTpdSv+ZBEDqpEDYmvFAqi1E2egfk6pHAiDCwl+nnTpARr80sTb/kXYkAFInUcLW1AUyals7EgARFv467UwCRDsSAKmTKGFrJgWiGQmACAt/nXZCgGhFAiB1EiVsTSgQjUgARFj467QzDRBtSACkTqKErZkWiCYkACIs/HXaaQKIFiQAUidRwtY0BUQDEgARFv467TQJRDoSAKmTKGFrmgYiGQmACAt/nXZiAJGKBEDqJErYmlhAJCIBEGHhr9NOTCDSkABInUQJWxMbiCQkACIs/HXa4QAiBQmA1EmUsDVcQCQgARBh4a/TDieQ1JEASJ1ECVvDDSRlJAAiLPx12mkDSKpIAKROooStaQtIikgARFj467TTJpDUkABInUQJW9M2kJSQAIiw8Ndpx9r8FSJ61xprDzpXHKpz1jRrUvhfCgHINC+c6F5r86eIaNta1+f6SIpJkRBV24bDY+e5Rq8OiLX5gWvhuItryGvVGX14UJaZc8Phwme47tPp9B8zxjzKVa/ZOqZ0bsE2e+bqp6kCMusfQ+1cwfIenU4+ZwyVXCFruo73/ktlOfhu0+de7zyWB5mFHwo7nf4DxphnOIY6RY0nnSsemmJ/ra1zc3vemmVXniMyH6y1YcYWeU//MMZ8wrmFc7GvpgZIt5sf8Z72xh7oNOd7T38py+Ld05xRd6+1/QeJzI/rrp+1dcaYPcPhwtHY91IDxNr+MpHZHnugU55/0bni1inPqL3d2nz0bcqe2htmaKH3/mhZDqLfXQ2Qbrf/sPfm+Ay98fWucta54l7OO1o7/00i/xXOmg3Vet654p6Gzlr1GDVARhPodPLzxtCG2EMNP7+dDzO1dv5DRP4bRHRf+N3Zd/7LuWJ97KqqgIyGaW1+mIj2xR7sJOfPyseYXf0VuBlh2UhEt0/SQxtrOX7rpw7I6CF7vd23VdWVO9p41P+vubKS/e3GG/9zYXFx8bVZuM/rd+j1em+vqjfd2e6dstNr1QeQdl8H1VucgLW7NhMByLUnaOd77xbfH6XHTABA3jAgAIGYN04AQAAEJtaYAIAACIAAyNUJzMK/xUIa05oA/gbB3yBpJZb5tgACIMyRS6scgABIWollvi2AAAhz5NIqByAAklZimW8LIADCHLm0ygEIgKSVWObbAgiAMEcurXIAAiBpJZb5tgACIMyRS6scgABIWollvi2AAAhz5NIqByAAklZimW8LIADCHLm0ygEIgKSVWObbAgiAMEcurXIAAiBpJZb5tgACIMyRS6scgABIWollvi2AAAhz5NIqByAAklZimW8LIADCHLm0ygEIgKSVWObbAgiAMEcurXIAAiBpJZb5tgACIMyRS6scgABIWollvi2AAAhz5NIqByAAklZimW8LIADCHLm0ygEIgKSVWObbAgiAMEcurXIAAiBpJZb5tgACIMyRS6scgABIWollvi2AtATE2vwAEW0joruY3zz1ci8R0dPOFYc4GgGQFoBYO++IfIfjgeXWMKVzCzZ2fwDCDKTT6T9gjHkm9sNqON97/6myHJyM2SuAMAPpdvMj3tPemI+q5Wxj6PHhsNgXs18AYQZibX+ZyGyP+ah6zvbHnRvMxewXQJiBdLv9h703x2M+qpazjfHbh8PBiZj9AggzkFG5Tic/bwxtiPmw0s/2ni6UZfGe2H0CSAtARiWtzQ8TUdTvn2OHp8XzjzhXPMJRH0BaAjIq2+vtvq2qrtzB8dBSamTZuj8sLR19hasfAGkRCNcjo074BAAEQMLTo2AngACIgpiHtwggABKeHgU7AQRAFMQ8vEUAAZDw9CjYCSAAoiDm4S0CCICEp0fBTgABEAUxD28RQAAkPD0KdgIIgCiIeXiLAAIg4elRsBNAAERBzMNbBBAACU+Pgp0AAiAKYh7eIoAASHh6FOwEEABREPPwFgEEQMLTo2AngACIgpiHtwggABKeHgU7AQRAFMQ8vEUAAZDw9CjYCSAAoiDm4S0CCICEp0fBTgABEAUxD28RQAAkPD0KdgIIgCiIeXiLAAIg4elRsBNAAERBzMNbBBAACU+Pgp0AAiAKYh7eIoAASHh6FOwEkBaBWJu/k6h6v4KcNdhi9jvnir82eOCaRwFIS0CszZ8iom1cDy2sztPOFZ/m6AlAWgBibf4iEX2U44EF1/iFc8XdsfsDEGYgc3P9HVlmvh/7YTWcX1V+5/LyYDFmrwDCDKTTyX9iDH025qNqOdt7+mlZFg/G7BdAmIFYmx8gooMxH1XR2QedKw7F7BdAmIF0u/2t3ptnYz6qlrON8fcPh4NTMfsFEGYgo3KdzvyzxvitMR9W+tnem1NluXB/7D4BpAUgo5LWzu8kqvYSmY2xH1nW+f5XRNnjzi2w/KIDQFoCIiu0crsBEACRm+4GOgMQAGkgRnKPABAAkZvuBjoDEABpIEZyjwAQAJGb7gY6AxAAaSBGco8AEACRm+4GOgMQAGkgRnKPABAAkZvuBjoDEABpIEZyjwAQAJGb7gY6AxAAaSBGco8AEACRm+4GOgMQAGkgRnKPABAAkZvuBjoDEABpIEZyjwAQAJGb7gY6AxAAaSBGco8AEACRm+4GOgMQAGkgRnKPABAAkZvuBjoDEABpIEZyjwAQAJGb7gY6AxAAaSBGco8AEACRm+4GOgMQAGkgRnKPABAAkZvuBjoDEABpIEZyjwAQAJGb7gY6AxAAaSBGco/QBuSfRLR+tefk+FBIuVGS2VmND1296Fxxa+zuTewCo/Ot7Z8mMptXq+U9XbjhBr91aWnwe477oMZsT6DX679vZcWcMoY2rH5Tf8a5wZbYnXAB+RaReWR8M/7M+DVYIX8Cq/9h+r/e/WHnBl+OPQsmIPkuIhrEbgbnq5pA37niWOyOWYD0el/4cFVlPycyt8RuCOdrmIC/lGXVvUtL3/tl7G5ZgIya6Hb7j3pvHovdEM6XPwFj/FeHw8HXODplA3Lth/UXiMzdHI2hhtQJ+BedG3yMqztWIFeR5H8kotu5GkQdURP4k3PFezk7YgdyFcl8j8j/gLNR1Ep9Aubzzi0scXfRCpBRkzt25B+4csV8nai6Dz+8cz97KvX8JaLsZ+vW+f2Li8Vv27h1a0Beb7bb7d5CdNOmqqJNxtCmNoaAmrM1Ae/pbJbRWaLXzg6Hw0tt3q51IG02j9qYwLgJAMi4CeHrqicAIKqfH82PmwCAjJsQvq56AgCi+vnR/LgJAMi4CeHrqicAIKqfH82PmwCAjJsQvq56Av8F2jMhUBS7h7cAAAAASUVORK5CYII=" vertex="1" parent="1">
          <mxGeometry x="300" y="-40" width="50" height="50" as="geometry" />
        </mxCell>
        <mxCell id="M7bjFKGv_57T8ZOS4i-B-5" value="MySQL" style="strokeWidth=2;html=1;shape=mxgraph.flowchart.database;whiteSpace=wrap;" vertex="1" parent="1">
          <mxGeometry x="130" y="200" width="60" height="60" as="geometry" />
        </mxCell>
        <mxCell id="M7bjFKGv_57T8ZOS4i-B-6" value="&lt;code&gt;Frontend&lt;/code&gt;" style="strokeWidth=2;html=1;shape=mxgraph.flowchart.database;whiteSpace=wrap;" vertex="1" parent="1">
          <mxGeometry x="230" y="200" width="60" height="60" as="geometry" />
        </mxCell>
        <mxCell id="M7bjFKGv_57T8ZOS4i-B-7" value="&lt;code&gt;Backend&lt;/code&gt;" style="strokeWidth=2;html=1;shape=mxgraph.flowchart.database;whiteSpace=wrap;" vertex="1" parent="1">
          <mxGeometry x="340" y="200" width="60" height="60" as="geometry" />
        </mxCell>
        <mxCell id="M7bjFKGv_57T8ZOS4i-B-8" value="&lt;code&gt;Pen_cve&lt;/code&gt;" style="strokeWidth=2;html=1;shape=mxgraph.flowchart.database;whiteSpace=wrap;" vertex="1" parent="1">
          <mxGeometry x="440" y="200" width="66" height="60" as="geometry" />
        </mxCell>
        <mxCell id="M7bjFKGv_57T8ZOS4i-B-13" value="*.yml" style="text;html=1;strokeColor=none;fillColor=none;align=center;verticalAlign=middle;whiteSpace=wrap;rounded=0;fontSize=14;fontStyle=1" vertex="1" parent="1">
          <mxGeometry x="340" y="-40" width="60" height="30" as="geometry" />
        </mxCell>
      </root>
    </mxGraphModel>
  </diagram>
</mxfile>
